<svg width="312" height="36" viewBox="0 0 312 36" fill="none" xmlns="http://www.w3.org/2000/svg">
<path d="M239.763 28.1675L236.714 22.071L254.391 8.81348H243.121L231.453 18.1454L226.928 27.1998L231.282 35.9092H247.295L257.617 28.1675H239.763Z" fill="black"/>
<path d="M225.248 8.81255H199.832L195.962 16.5542H216.767L219.803 22.6281L212.88 28.1666H193.797L190.894 22.3604L193.529 17.0896L198.1 7.94807L192.142 0L178.543 27.1989L182.898 35.9082H215.767L225.051 26.6247L229.602 17.5219L225.248 8.81255Z" fill="black"/>
<path d="M142.992 8.81348H114.96L107.219 16.5551H132.092L134.995 22.3613L132.36 27.6321L128.221 35.9092H138.153L142.508 27.1998L147.346 17.5228L142.992 8.81348Z" fill="black"/>
<path d="M159.926 28.1663L157.023 22.3601L158.958 18.4893H149.027L148.62 19.3021L144.672 27.1986L149.027 35.9079H180.732L176.861 28.1663H159.926Z" fill="black"/>
<path d="M194.99 26.2309H212.196L217.367 22.0923L215.567 18.4893H194.99L193.055 22.3601L194.99 26.2309Z" fill="black"/>
<path d="M290.567 28.1663L287.664 22.3601L289.599 18.4893H279.667L275.312 27.1986L279.667 35.9079H311.001L305.195 28.1663H290.567Z" fill="black"/>
<path d="M260.198 26.2309L265.746 22.0698L263.956 18.4893H244.715L239.17 22.6504L240.96 26.2309H260.198Z" fill="black"/>
<path d="M277.983 17.5228L273.629 8.81348H257.616L247.291 16.5551H265.148L268.197 22.6516L250.517 35.9092H261.79L273.458 26.5773L276.729 20.0356L277.983 17.5228Z" fill="black"/>
<path d="M108.267 28.1663H107.3V26.2309H130.896L132.831 22.3601L130.896 18.4893H105.284L96.3809 27.3889L100.642 35.9079H126.057L129.928 28.1663H108.267Z" fill="black"/>
<path d="M51.0592 8.81255H25.6441L21.7733 16.5542H42.5789L45.6143 22.6281L38.6758 28.1666H13.8027L19.3411 17.0896L23.9119 7.94807L17.9541 0L0 35.9082H41.5789L50.8624 26.6247L51.0882 26.1764L55.4139 17.5219L51.0592 8.81255Z" fill="black"/>
<path d="M160.523 16.5533H172.022L175.893 8.81172H160.123L155.952 4.6377L149.994 16.5533H159.926H160.523Z" fill="black"/>
<path d="M291.163 16.5533H302.663L306.534 8.81172H290.763L286.593 4.6377L280.635 16.5533H290.567H291.163Z" fill="black"/>
<path d="M64.9249 22.0291L73.1375 16.5551H103.314L99.4429 8.81348H71.3021L57.2445 18.1841L52.7383 27.1998L57.0929 35.9092H85.124L92.8657 28.1675H67.9925L64.9249 22.0291Z" fill="black"/>
<path d="M73.7229 18.4893L67.4199 22.6923L69.1908 26.2309H94.8027L102.544 18.4893H73.7229Z" fill="black"/>
<path d="M37.9992 26.2309L43.1828 22.0923L41.383 18.4893H20.8064L16.9355 26.2309H37.9992Z" fill="black"/>
</svg>
