<svg
  width="51"
  height="32"
  viewBox="0 0 51 32"
  fill="transparent"
  xmlns="http://www.w3.org/2000/svg"
>
  <style>
    path {
      fill: black;
    }
    @media (prefers-color-scheme: dark) {
      path {
        fill: white;
      }
    }
  </style>
  <path
    d="M51 15.7665L46.8446 9.11902H34.2539L30.8277 4.40117H17.1898L15.2019 8.41134H28.845L32.2713 13.1292H44.9163L46.2956 15.9121L43.6762 18.5547H29.5764L26.1502 13.8369H11.7277L13.8261 9.60378L16.5625 4.08448L13.525 0L8.8475 9.4357L0 27.2821H19.8794L17.5406 32H40.2154L46.9505 25.2075L45.1806 21.6367L51 15.7665ZM38.9987 27.9904H24.8989L21.4727 23.2726H7.05017L9.73973 17.847H24.1675L27.5938 22.5649H40.2388L41.6181 25.3478L38.9987 27.9904Z"
  />
  <path
    d="M27.2396 23.2725L23.8133 18.5547H10.1754L8.1875 22.5649H21.8306L25.2569 27.2827H38.7088L40.7663 25.208L39.8068 23.2725H27.2396Z"
  />
  <path
    d="M12.8633 13.1298H26.5064L29.9327 17.8477H43.3852L45.4421 15.773L44.4826 13.8375H31.9153L28.4891 9.11963H14.8512L14.4542 9.92108V9.92049L12.8633 13.1298Z"
  />
</svg>
