<svg width="57" height="57" viewBox="0 0 57 57" fill="none" xmlns="http://www.w3.org/2000/svg">
<path d="M28.6836 55.8741C23.3055 55.8741 18.0482 54.2793 13.5765 51.2914C9.10486 48.3034 5.61967 44.0565 3.5617 39.0877C1.50373 34.119 0.965476 28.6515 2.01491 23.3768C3.06434 18.1021 5.65435 13.257 9.45745 9.45434C13.2605 5.65167 18.1059 3.06219 23.3807 2.01334C28.6556 0.96449 34.123 1.50338 39.0915 3.56189C44.06 5.62041 48.3065 9.10612 51.294 13.5781C54.2815 18.0501 55.8757 23.3076 55.8751 28.6857C55.8664 35.8943 52.9987 42.8052 47.9011 47.9022C42.8035 52.9993 35.8923 55.8662 28.6836 55.8741ZM28.6836 1.94459C23.3947 1.94459 18.2246 3.51292 13.8271 6.45128C9.42952 9.38963 6.00208 13.566 3.97811 18.4523C1.95413 23.3386 1.42457 28.7153 2.45638 33.9026C3.48819 39.0899 6.03501 43.8547 9.77483 47.5945C13.5146 51.3344 18.2794 53.8812 23.4667 54.913C28.654 55.9448 34.0308 55.4152 38.9171 53.3913C43.8034 51.3673 47.9798 47.9398 50.9181 43.5422C53.8565 39.1447 55.4248 33.9746 55.4248 28.6857C55.4169 21.5959 52.597 14.7989 47.5837 9.78565C42.5705 4.77243 35.7734 1.95253 28.6836 1.94459Z" fill="#151515"/>
<path d="M28.6814 55.874C16.168 55.874 5.98438 43.6758 5.98438 28.6856C5.98438 13.6953 16.168 1.49414 28.6814 1.49414C41.1948 1.49414 51.3785 13.6923 51.3785 28.6856C51.3785 43.6788 41.1948 55.874 28.6814 55.874ZM28.6814 1.94448C16.4142 1.94448 6.43471 13.9385 6.43471 28.6856C6.43471 43.4327 16.4142 55.4267 28.6814 55.4267C40.9486 55.4267 50.9282 43.4176 50.9282 28.6856C50.9282 13.9535 40.9486 1.94448 28.6814 1.94448Z" fill="#151515"/>
<path d="M28.687 55.874C18.6505 55.874 10.4844 43.6758 10.4844 28.6856C10.4844 13.6953 18.6505 1.49414 28.687 1.49414C38.7236 1.49414 46.8898 13.6923 46.8898 28.6856C46.8898 43.6788 38.7236 55.874 28.687 55.874ZM28.687 1.94448C18.8997 1.94448 10.9347 13.9385 10.9347 28.6856C10.9347 43.4327 18.8997 55.4267 28.687 55.4267C38.4744 55.4267 46.4394 43.4176 46.4394 28.6856C46.4394 13.9535 38.4744 1.94448 28.687 1.94448Z" fill="#151515"/>
<path d="M28.6848 55.874C21.1252 55.874 14.9766 43.6758 14.9766 28.6856C14.9766 13.6953 21.1252 1.49414 28.6848 1.49414C36.2445 1.49414 42.3932 13.6923 42.3932 28.6856C42.3932 43.6788 36.2415 55.874 28.6848 55.874ZM28.6848 1.94448C21.3743 1.94448 15.4269 13.9385 15.4269 28.6856C15.4269 43.4327 21.3743 55.4267 28.6848 55.4267C35.9953 55.4267 41.9429 43.4176 41.9429 28.6856C41.9429 13.9535 35.9953 1.94448 28.6848 1.94448Z" fill="#151515"/>
<path d="M28.6827 55.874C23.6028 55.874 19.4688 43.6758 19.4688 28.6856C19.4688 13.6953 23.6028 1.49414 28.6827 1.49414C33.7625 1.49414 37.8966 13.6923 37.8966 28.6856C37.8966 43.6788 33.7625 55.874 28.6827 55.874ZM28.6827 1.94448C23.849 1.94448 19.9191 13.9385 19.9191 28.6856C19.9191 43.4327 23.849 55.4267 28.6827 55.4267C33.5163 55.4267 37.4463 43.4176 37.4463 28.6856C37.4463 13.9535 33.5043 1.94448 28.6827 1.94448Z" fill="#151515"/>
<path d="M28.6883 55.874C25.7341 55.874 23.9688 42.0636 23.9688 28.6856C23.9688 15.3075 25.7341 1.49414 28.6883 1.49414C31.6425 1.49414 33.4078 15.3045 33.4078 28.6856C33.4078 42.0666 31.6425 55.874 28.6883 55.874ZM28.6883 1.94448C26.6257 1.94448 24.4191 12.6895 24.4191 28.6856C24.4191 44.6816 26.6257 55.4267 28.6883 55.4267C30.7508 55.4267 32.9575 44.6816 32.9575 28.6856C32.9575 12.6895 30.7508 1.94448 28.6883 1.94448Z" fill="#151515"/>
<path d="M28.6843 56.5492C23.1733 56.5492 17.7861 54.915 13.2039 51.8533C8.62166 48.7916 5.05032 44.4398 2.94136 39.3483C0.832402 34.2568 0.28058 28.6544 1.35572 23.2493C2.43086 17.8442 5.08466 12.8793 8.9815 8.98248C12.8783 5.08563 17.8432 2.43183 23.2483 1.35669C28.6534 0.281557 34.2559 0.833378 39.3474 2.94234C44.4388 5.05129 48.7906 8.62264 51.8523 13.2048C54.9141 17.7871 56.5483 23.1743 56.5483 28.6852C56.5395 36.0725 53.6011 43.1548 48.3774 48.3784C43.1538 53.602 36.0716 56.5405 28.6843 56.5492ZM28.6843 2.61668C23.5283 2.61608 18.4879 4.14441 14.2005 7.00851C9.91314 9.8726 6.57141 13.9438 4.59788 18.7071C2.62435 23.4705 2.10764 28.7121 3.11317 33.7691C4.11869 38.8262 6.60126 43.4714 10.2469 47.1175C13.8926 50.7635 18.5375 53.2466 23.5944 54.2528C28.6513 55.2589 33.893 54.7428 38.6566 52.7698C43.4202 50.7968 47.4917 47.4555 50.3563 43.1685C53.2209 38.8815 54.7499 33.8413 54.7499 28.6852C54.7428 21.7741 51.9944 15.1481 47.1078 10.2609C42.2212 5.37375 35.5954 2.62462 28.6843 2.61668Z" fill="#151515"/>
<path d="M28.6814 55.874C16.168 55.874 5.98438 43.6758 5.98438 28.6856C5.98438 13.6953 16.168 1.49414 28.6814 1.49414C41.1948 1.49414 51.3785 13.6923 51.3785 28.6856C51.3785 43.6788 41.1948 55.874 28.6814 55.874ZM28.6814 1.94448C16.4142 1.94448 6.43471 13.9385 6.43471 28.6856C6.43471 43.4327 16.4142 55.4267 28.6814 55.4267C40.9486 55.4267 50.9282 43.4176 50.9282 28.6856C50.9282 13.9535 40.9486 1.94448 28.6814 1.94448Z" fill="#151515"/>
<path d="M28.687 55.874C18.6505 55.874 10.4844 43.6758 10.4844 28.6856C10.4844 13.6953 18.6505 1.49414 28.687 1.49414C38.7236 1.49414 46.8898 13.6923 46.8898 28.6856C46.8898 43.6788 38.7236 55.874 28.687 55.874ZM28.687 1.94448C18.8997 1.94448 10.9347 13.9385 10.9347 28.6856C10.9347 43.4327 18.8997 55.4267 28.687 55.4267C38.4744 55.4267 46.4394 43.4176 46.4394 28.6856C46.4394 13.9535 38.4744 1.94448 28.687 1.94448Z" fill="#151515"/>
<path d="M28.6848 55.874C21.1252 55.874 14.9766 43.6758 14.9766 28.6856C14.9766 13.6953 21.1252 1.49414 28.6848 1.49414C36.2445 1.49414 42.3932 13.6923 42.3932 28.6856C42.3932 43.6788 36.2415 55.874 28.6848 55.874ZM28.6848 1.94448C21.3743 1.94448 15.4269 13.9385 15.4269 28.6856C15.4269 43.4327 21.3743 55.4267 28.6848 55.4267C35.9953 55.4267 41.9429 43.4176 41.9429 28.6856C41.9429 13.9535 35.9953 1.94448 28.6848 1.94448Z" fill="#151515"/>
<path d="M28.6827 55.874C23.6028 55.874 19.4688 43.6758 19.4688 28.6856C19.4688 13.6953 23.6028 1.49414 28.6827 1.49414C33.7625 1.49414 37.8966 13.6923 37.8966 28.6856C37.8966 43.6788 33.7625 55.874 28.6827 55.874ZM28.6827 1.94448C23.849 1.94448 19.9191 13.9385 19.9191 28.6856C19.9191 43.4327 23.849 55.4267 28.6827 55.4267C33.5163 55.4267 37.4463 43.4176 37.4463 28.6856C37.4463 13.9535 33.5043 1.94448 28.6827 1.94448Z" fill="#151515"/>
<path d="M28.6883 55.874C25.7341 55.874 23.9688 42.0636 23.9688 28.6856C23.9688 15.3075 25.7341 1.49414 28.6883 1.49414C31.6425 1.49414 33.4078 15.3045 33.4078 28.6856C33.4078 42.0666 31.6425 55.874 28.6883 55.874ZM28.6883 1.94448C26.6257 1.94448 24.4191 12.6895 24.4191 28.6856C24.4191 44.6816 26.6257 55.4267 28.6883 55.4267C30.7508 55.4267 32.9575 44.6816 32.9575 28.6856C32.9575 12.6895 30.7508 1.94448 28.6883 1.94448Z" fill="#151515"/>
<path d="M24.2022 38.1875C23.6827 38.1876 23.1793 38.3678 22.7777 38.6975C22.3762 39.0272 22.1013 39.4859 22.0001 39.9955C21.8988 40.5051 21.9774 41.034 22.2224 41.4922C22.4674 41.9503 22.8637 42.3094 23.3438 42.5081C23.8238 42.7068 24.3579 42.733 24.855 42.582C25.3522 42.4311 25.7817 42.1125 26.0702 41.6805C26.3588 41.2485 26.4886 40.7297 26.4376 40.2127C26.3866 39.6957 26.1579 39.2123 25.7905 38.845C25.5822 38.6361 25.3346 38.4704 25.062 38.3576C24.7895 38.2447 24.4973 38.1869 24.2022 38.1875Z" fill="#151515"/>
<path d="M45.5929 20.8076C45.0733 20.8077 44.5699 20.988 44.1683 21.3177C43.7668 21.6474 43.492 22.1061 43.3907 22.6156C43.2895 23.1252 43.368 23.6542 43.613 24.1123C43.858 24.5704 44.2544 24.9295 44.7344 25.1282C45.2144 25.3269 45.7485 25.3531 46.2456 25.2022C46.7428 25.0512 47.1722 24.7326 47.4608 24.3006C47.7493 23.8686 47.8792 23.3499 47.8282 22.8328C47.7772 22.3158 47.5485 21.8324 47.1811 21.4651C46.9726 21.2564 46.7249 21.091 46.4524 20.9782C46.1799 20.8654 45.8878 20.8074 45.5929 20.8076Z" fill="#151515"/>
<path d="M28.9113 1.71875H28.4609V55.8015H28.9113V1.71875Z" fill="#151515"/>
<path d="M55.7194 28.5381H1.63672V28.9884H55.7194V28.5381Z" fill="#151515"/>
</svg>
