<svg width="13" height="12" viewBox="0 0 13 12" fill="none" xmlns="http://www.w3.org/2000/svg">
<path d="M11.6117 0H1.38594C0.896094 0 0.5 0.386719 0.5 0.864844V11.1328C0.5 11.6109 0.896094 12 1.38594 12H11.6117C12.1016 12 12.5 11.6109 12.5 11.1352V0.864844C12.5 0.386719 12.1016 0 11.6117 0ZM4.06016 10.2258H2.27891V4.49766H4.06016V10.2258ZM3.16953 3.71719C2.59766 3.71719 2.13594 3.25547 2.13594 2.68594C2.13594 2.11641 2.59766 1.65469 3.16953 1.65469C3.73906 1.65469 4.20078 2.11641 4.20078 2.68594C4.20078 3.25312 3.73906 3.71719 3.16953 3.71719ZM10.7258 10.2258H8.94687V7.44141C8.94687 6.77812 8.93516 5.92266 8.02109 5.92266C7.09531 5.92266 6.95469 6.64687 6.95469 7.39453V10.2258H5.17813V4.49766H6.88437V5.28047H6.90781C7.14453 4.83047 7.72578 4.35469 8.59063 4.35469C10.393 4.35469 10.7258 5.54063 10.7258 7.08281V10.2258Z" fill="white"/>
</svg>
