<svg width="464" height="54" viewBox="0 0 464 54" xmlns="http://www.w3.org/2000/svg" fill="#ffffff">
<path d="M357.712 42.0239L353.164 32.9281L379.537 13.1484H362.722L345.315 27.0712L338.562 40.5801L345.059 53.5741H368.949L384.349 42.0239H357.712Z" />
<path d="M336.056 13.148H298.138L292.363 24.6982H323.404L327.933 33.7602L317.605 42.0234H289.134L284.802 33.3608L288.734 25.497L295.554 11.8582L286.665 0L266.375 40.5797L272.872 53.5736H321.912L335.763 39.723L342.553 26.1419L336.056 13.148Z" />
<path d="M213.336 13.1484H171.515L159.965 24.6986H197.075L201.406 33.3613L197.474 41.225L191.3 53.5741H206.118L212.615 40.5801L219.833 26.1424L213.336 13.1484Z" />
<path d="M238.602 42.0237L234.271 33.361L237.159 27.5859H222.341L221.734 28.7987L215.844 40.5799L222.341 53.5739H269.644L263.869 42.0237H238.602Z" />
<path d="M290.919 39.1361H316.589L324.304 32.9616L321.618 27.5859H290.919L288.031 33.361L290.919 39.1361Z" />
<path d="M433.513 42.0237L429.181 33.361L432.069 27.5859H417.251L410.754 40.5799L417.251 53.5739H464L455.338 42.0237H433.513Z" />
<path d="M388.201 39.1361L396.479 32.9279L393.808 27.5859H365.101L356.828 33.7941L359.499 39.1361H388.201Z" />
<path d="M414.745 26.1424L408.248 13.1484H384.358L368.953 24.6986H395.596L400.143 33.7944L373.766 53.5741H390.586L407.993 39.6513L412.873 29.8914L414.745 26.1424Z" />
<path d="M161.529 42.0237H160.085V39.1361H195.29L198.177 33.361L195.29 27.5859H157.078L143.795 40.8638L150.152 53.5739H188.071L193.846 42.0237H161.529Z" />
<path d="M76.1783 13.148H38.26L32.4849 24.6982H63.5261L68.0546 33.7602L57.7028 42.0234H20.593L28.8562 25.497L35.6756 11.8582L26.7868 0L0 53.5736H62.0341L75.8847 39.723L76.2216 39.0541L82.6753 26.1419L76.1783 13.148Z" />
<path d="M239.493 24.6986H256.65L262.425 13.1484H238.897L232.674 6.9209L223.785 24.6986H238.603H239.493Z" />
<path d="M434.404 24.6986H451.56L457.336 13.1484H433.807L427.584 6.9209L418.695 24.6986H433.513H434.404Z" />
<path d="M96.8675 32.8656L109.12 24.6986H154.142L148.367 13.1484H106.382L85.4087 27.129L78.6855 40.5801L85.1825 53.5741H127.004L138.554 42.0239H101.444L96.8675 32.8656Z" />
<path d="M109.992 27.5859L100.588 33.8567L103.23 39.1361H141.442L152.992 27.5859H109.992Z" />
<path d="M56.6918 39.1361L64.4255 32.9616L61.7402 27.5859H31.0407L25.2656 39.1361H56.6918Z" />
</svg>
