<svg width="246" height="34" viewBox="0 0 246 34" fill="none" xmlns="http://www.w3.org/2000/svg">
<path d="M246 33.0229L238.74 23.3444H227.706L226.402 20.7383L227.706 18.1323H237.011L241.851 8.45625H227.478L222.986 3.96418L217.71 14.5191L214.676 8.45625H189.4L180.866 15.2853L177.453 8.45882H156.848L150.514 0.002565L138.854 23.3444H127.205L125.901 20.7383L127.205 18.1323H136.512L141.35 8.45625H126.977L122.485 3.96418L117.209 14.5191L114.177 8.45625H90.6792L84.0013 15.1188L80.6701 8.45625H57.3052L46.9091 15.375L43.4446 8.45625H22.8396L16.5077 0L0 33.0127H35.7725L42.4478 26.3502L45.7791 33.0127H69.267L75.9423 26.3502L79.2735 33.0127H110.434L113.465 26.9473L116.499 33.0127H169.766L176.428 26.3502L179.759 33.0127H205.036L213.569 26.1862L217.01 33.0229H246ZM237.626 25.5917L241.534 30.8038H218.399L215.235 24.4744L216.721 21.5071L218.399 18.145H225.21L223.909 20.7511L226.328 25.5917H237.626ZM223.599 7.74643L226.553 10.701H238.238L235.632 15.9131H219.517L223.599 7.74643ZM123.092 7.74643L126.047 10.701H137.732L135.126 15.9131H119.01L123.092 7.74643ZM75.7936 23.3572H56.4724L55.3603 21.1355L59.8421 18.145H81.0058L75.7936 23.3572ZM34.8475 30.8038H3.61315L16.8869 4.25631L20.9741 9.70162L17.5583 16.5307L13.0355 25.5789H32.9051L38.581 21.0484L36.0185 15.9003H20.3873L22.9934 10.6882H42.0866L45.2512 17.0176L41.8585 23.8005L34.8475 30.8038ZM34.6194 18.145L35.7674 20.4513L32.1158 23.3649H16.6435L19.247 18.1527L34.6194 18.145ZM68.3496 30.8038H47.168L44.0033 24.4744L47.3346 17.794L57.9741 10.701H79.2812L81.8873 15.9131H59.1605L52.4749 20.3693L55.0861 25.5917H73.5514L68.3496 30.8038ZM77.6105 24.6948L84.1577 18.145H103.492L104.796 20.7511L103.492 23.3572H85.5542L86.6715 25.5917H102.359L99.753 30.8038H80.6624L77.6105 24.6948ZM109.063 30.8038H102.254L104.86 25.5917L105.168 24.9741L107.279 20.7511L104.86 15.9131H86.3922L91.6043 10.701H112.786L115.951 17.0304L112.227 24.4616L109.063 30.8038ZM117.888 30.8038L114.723 24.4744L117.888 18.145H124.696L123.395 20.7511L125.814 25.5917H138.854L141.458 30.8038H117.888ZM168.851 30.8038H143.946L140.781 24.4744L150.89 4.25631L154.975 9.70162L151.562 16.5307L149.453 20.7511L151.872 25.5917H166.911L172.577 21.0612L170.014 15.9131H154.383L156.989 10.701H176.082L179.247 17.0304L175.854 23.8133L168.851 30.8038ZM153.25 18.145H168.625L169.773 20.4513L166.132 23.3649H153.255L151.954 20.7588L153.25 18.145ZM178.007 24.4744L181.369 17.7479L190.179 10.701H197.61L184.654 20.418L187.239 25.5917H200.098L193.148 30.8038H181.182L178.007 24.4744ZM203.063 23.3572H188.615L187.48 21.0868L191.398 18.1476H205.846L206.983 20.4205L203.063 23.3572ZM204.285 30.8038H196.854L209.81 21.0868L207.222 15.9131H194.371L201.32 10.701H213.287L216.452 17.0304L213.087 23.7544L204.285 30.8038Z" fill="white"/>
</svg>
