<svg width="20" height="20" viewBox="0 0 20 20" fill="none" xmlns="http://www.w3.org/2000/svg">
<path d="M11.2812 9.85626C11.2812 12.9985 8.75578 15.5458 5.6407 15.5458C2.52561 15.5458 0 12.9979 0 9.85626C0 6.71457 2.52542 4.1665 5.6407 4.1665C8.75598 4.1665 11.2812 6.71399 11.2812 9.85626Z" fill="#151515"/>
<path d="M17.4688 9.85646C17.4688 12.8142 16.2061 15.2129 14.6485 15.2129C13.0908 15.2129 11.8281 12.8142 11.8281 9.85646C11.8281 6.8987 13.0906 4.5 14.6483 4.5C16.2059 4.5 17.4686 6.89793 17.4686 9.85646" fill="#151515"/>
<path d="M19.9993 9.85665C19.9993 12.5061 19.5553 14.6552 19.0074 14.6552C18.4595 14.6552 18.0156 12.5067 18.0156 9.85665C18.0156 7.20664 18.4597 5.05811 19.0074 5.05811C19.5551 5.05811 19.9993 7.20645 19.9993 9.85665Z" fill="#151515"/>
</svg>
