<svg width="13" height="11" viewBox="0 0 13 11" fill="none" xmlns="http://www.w3.org/2000/svg">
<path d="M12.7299 1.42507C12.27 1.6634 11.8101 1.74284 11.2735 1.82229C11.8101 1.50451 12.1933 1.02784 12.3467 0.392287C11.8867 0.710065 11.3501 0.868954 10.7369 1.02784C10.2769 0.551176 9.58702 0.233398 8.8971 0.233398C7.28731 0.233398 6.0608 1.82229 6.44408 3.41118C4.37435 3.33173 2.53458 2.29895 1.23141 0.710066C0.541501 1.90173 0.924785 3.41118 1.99798 4.20562C1.6147 4.20562 1.23141 4.04673 0.848128 3.88784C0.848128 5.07951 1.69135 6.19173 2.84121 6.50951C2.45792 6.58895 2.07464 6.6684 1.69135 6.58896C1.99798 7.62173 2.91786 8.41618 4.06772 8.41618C3.14784 9.13118 1.76801 9.5284 0.464844 9.36951C1.6147 10.0845 2.91786 10.5612 4.29769 10.5612C8.97376 10.5612 11.5801 6.50951 11.4268 2.77562C11.9634 2.45784 12.4233 1.98118 12.7299 1.42507Z" fill="white"/>
</svg>
